<svg version="1.2" baseProfile="tiny-ps" xmlns="http://www.w3.org/2000/svg" viewBox="0 0 23 44" width="23" height="44">
	<title>Navigation</title>
	<style>
		tspan { white-space:pre }
		.shp0 { fill: #6e6d6b } 
	</style>
	<g id="Navigation">
		<path id="about-icon" class="shp0" d="M9.09 18.62C9.56 17.41 8.96 16.81 8.42 16.81C5.94 16.81 2.73 22.64 1.52 22.64C1.05 22.64 0.65 22.17 0.65 21.76C0.65 20.56 3.6 17.75 4.47 16.87C7.15 14.33 10.63 12.39 14.52 12.39C17.4 12.39 20.48 14.13 18.07 20.63L13.24 33.69C12.84 34.69 12.11 36.37 12.11 37.44C12.11 37.91 12.37 38.38 12.91 38.38C14.92 38.38 18.6 32.69 19.54 32.69C19.88 32.69 20.35 33.09 20.35 33.69C20.35 35.63 12.51 43.94 5.74 43.94C3.33 43.94 1.65 42.8 1.65 40.26C1.65 37.04 3.93 31.55 4.4 30.41L9.09 18.62ZM12.71 5.42C12.71 2.47 15.25 0.06 18.2 0.06C20.88 0.06 22.83 1.87 22.83 4.61C22.83 7.7 20.28 9.98 17.27 9.98C14.52 9.98 12.71 8.17 12.71 5.42Z" />
	</g>
</svg>