<svg version="1.2" baseProfile="tiny-ps" xmlns="http://www.w3.org/2000/svg" viewBox="0 0 40 40" width="40" height="40">
	<title>Navigation</title>
	<style>
		tspan { white-space:pre }
		.shp0 { fill: #6e6d6b } 
	</style>
	<g id="Navigation">
		<path id="blog-icon" class="shp0" d="M20.17 -0.01C31.26 -0.01 40.01 8.74 40.01 19.83C40.01 30.92 31.26 39.67 20.17 39.67C9.08 39.67 0.33 30.92 0.33 19.83C0.33 8.74 9.08 -0.01 20.17 -0.01ZM9.26 18.95C9.38 16.45 10.08 13.29 11.24 10.14C9.49 9.38 7.92 8.57 6.69 7.69C4.01 10.67 2.37 14.58 2.2 18.95L9.26 18.95ZM2.2 20.7C2.37 25.08 4.01 28.99 6.69 31.97C7.92 31.09 9.49 30.27 11.24 29.52C10.02 26.36 9.32 23.16 9.26 20.7L2.2 20.7ZM15.15 2.5C12.41 3.2 9.96 4.6 7.92 6.47C8.97 7.23 10.31 7.98 11.83 8.63C12.7 6.41 13.87 4.25 15.15 2.5ZM7.92 33.19C9.96 35.06 12.41 36.46 15.15 37.1C13.81 35.29 12.7 33.19 11.89 30.97C10.37 31.62 9.03 32.37 7.92 33.19ZM19.29 12.36C17.31 12.24 15.04 11.66 12.82 10.73C11.77 13.47 11.13 16.21 11.01 18.95L19.29 18.95L19.29 12.36ZM11.01 20.7C11.13 23.33 11.77 26.13 12.82 28.93C15.04 28 17.31 27.41 19.29 27.3L19.29 20.7L11.01 20.7ZM19.29 1.8C18.71 1.8 18.13 1.86 17.49 1.97C15.91 4.13 14.45 6.58 13.34 9.27C15.27 9.97 17.37 10.44 19.29 10.55L19.29 1.8ZM19.29 29.11C17.43 29.22 15.39 29.63 13.4 30.33C14.45 32.96 15.85 35.53 17.49 37.68C18.13 37.8 18.71 37.86 19.29 37.86L19.29 29.11ZM21.04 10.55C22.97 10.44 25.07 9.97 27 9.27C25.89 6.58 24.43 4.13 22.85 1.97C22.21 1.86 21.63 1.8 21.04 1.8L21.04 10.55ZM21.04 18.95L29.33 18.95C29.21 16.21 28.57 13.47 27.52 10.73C25.3 11.66 23.03 12.24 21.04 12.36L21.04 18.95ZM21.04 20.7L21.04 27.3C23.03 27.41 25.3 28 27.52 28.93C28.57 26.13 29.21 23.33 29.33 20.7L21.04 20.7ZM21.04 37.86C21.63 37.86 22.21 37.8 22.85 37.68C24.49 35.53 25.89 32.96 26.94 30.33C24.96 29.63 22.91 29.22 21.04 29.11L21.04 37.86ZM32.42 6.47C30.38 4.6 27.93 3.2 25.19 2.5C26.47 4.25 27.64 6.41 28.51 8.63C30.03 7.98 31.37 7.23 32.42 6.47ZM25.19 37.1C27.93 36.46 30.38 35.06 32.42 33.19C31.31 32.37 29.97 31.62 28.46 30.97C27.64 33.19 26.53 35.29 25.19 37.1ZM38.14 18.95C37.97 14.58 36.33 10.67 33.65 7.69C32.42 8.57 30.85 9.38 29.1 10.14C30.26 13.29 30.97 16.45 31.08 18.95L38.14 18.95ZM31.08 20.7C31.02 23.16 30.32 26.36 29.1 29.52C30.85 30.27 32.42 31.09 33.65 31.97C36.33 28.99 37.97 25.08 38.14 20.7L31.08 20.7Z" />
	</g>
</svg>