<svg version="1.2" baseProfile="tiny-ps" xmlns="http://www.w3.org/2000/svg" viewBox="0 0 54 47" width="54" height="47">
	<title>Navigation</title>
	<style>
		tspan { white-space:pre }
		.shp0 { fill: #6e6d6b } 
	</style>
	<g id="Navigation">
		<path id="home-icon" class="shp0" d="M0.24 17.81L27.24 2.27L32.32 5.18L32.32 0.86L39.43 0.86L39.43 9.27L54.23 17.81L0.24 17.81ZM37.34 10.49L37.34 2.94L34.41 2.94L34.4 2.95L34.4 8.8L27.21 4.7L8.06 15.72L46.43 15.72L37.34 10.49ZM47.53 46.63L28.8 46.63L28.8 35.7L28.79 35.69L23.47 35.69L23.45 35.7L23.45 46.63L6.69 46.63L6.69 19.44L47.53 19.44L47.53 46.63ZM45.45 21.53L45.44 21.53L8.77 21.53L8.77 44.53L8.77 44.55L21.37 44.55L21.37 33.61L30.89 33.61L30.89 44.53L30.89 44.55L45.45 44.55L45.45 21.53ZM41.26 31.03L33.32 31.03L33.32 23.54L41.26 23.54L41.26 31.03ZM10.77 23.54L18.72 23.54L18.72 31.03L10.77 31.03L10.77 23.54Z" />
	</g>
</svg>